<?xml version="1.0" encoding="UTF-8" standalone="no"?>
<!DOCTYPE svg PUBLIC "-//W3C//DTD SVG 1.1//EN"
 "http://www.w3.org/Graphics/SVG/1.1/DTD/svg11.dtd">
<!-- Generated by graphviz version 2.26.3 (20100126.1600)
 -->
<!-- Title: G Pages: 1 -->
<svg width="518pt" height="620pt"
 viewBox="0.00 0.00 518.00 620.00" xmlns="http://www.w3.org/2000/svg" xmlns:xlink="http://www.w3.org/1999/xlink">
<g id="graph1" class="graph" transform="scale(1 1) rotate(0) translate(4 616)">
<title>G</title>
<polygon fill="white" stroke="white" points="-4,5 -4,-616 515,-616 515,5 -4,5"/>
<g id="graph2" class="cluster"><title>cluster_global</title>
<polyline fill="none" stroke="gray" points="142,-44 490,-44 "/>
<path fill="none" stroke="gray" d="M490,-44C496,-44 502,-50 502,-56"/>
<polyline fill="none" stroke="gray" points="502,-56 502,-592 "/>
<path fill="none" stroke="gray" d="M502,-592C502,-598 496,-604 490,-604"/>
<polyline fill="none" stroke="gray" points="490,-604 142,-604 "/>
<path fill="none" stroke="gray" d="M142,-604C136,-604 130,-598 130,-592"/>
<polyline fill="none" stroke="gray" points="130,-592 130,-56 "/>
<path fill="none" stroke="gray" d="M130,-56C130,-50 136,-44 142,-44"/>
<text text-anchor="middle" x="316" y="-590.1" font-family="Times Roman,serif" font-size="11.00" fill="gray">global</text>
</g>
<!-- \\UtilsTest -->
<g id="node2" class="node"><title>\\UtilsTest</title>
<a xlink:href="core.test.UtilsTest.html" xlink:title="UtilsTest" target="_parent">
<polygon fill="none" stroke="black" points="486,-196 410,-196 410,-160 486,-160 486,-196"/>
<text text-anchor="middle" x="448" y="-175.1" font-family="Courier,monospace" font-size="11.00">UtilsTest</text>
</a>
</g>
<!-- \\PHPUnit_Framework_TestCase -->
<g id="node15" class="node"><title>\\PHPUnit_Framework_TestCase</title>
<ellipse fill="none" stroke="black" cx="165" cy="-18" rx="164.756" ry="18.3848"/>
<text text-anchor="middle" x="165" y="-14.4" font-family="Times Roman,serif" font-size="14.00" fill="gray">\PHPUnit_Framework_TestCase</text>
</g>
<!-- \\UtilsTest&#45;&gt;\\PHPUnit_Framework_TestCase -->
<g id="edge3" class="edge"><title>\\UtilsTest&#45;&gt;\\PHPUnit_Framework_TestCase</title>
<path fill="none" stroke="black" d="M413.079,-159.904C409.14,-157.18 405.346,-154.2 402,-151 359.502,-110.359 379.697,-71.4324 330,-40 324.993,-36.8332 319.73,-34.0325 314.284,-31.5596"/>
<polygon fill="none" stroke="black" points="315.537,-28.2903 304.958,-27.7005 312.86,-34.7584 315.537,-28.2903"/>
</g>
<!-- \\OrmTest -->
<g id="node3" class="node"><title>\\OrmTest</title>
<a xlink:href="core.test.OrmTest.html" xlink:title="OrmTest" target="_parent">
<polygon fill="none" stroke="black" points="480,-142 416,-142 416,-106 480,-106 480,-142"/>
<text text-anchor="middle" x="448" y="-121.1" font-family="Courier,monospace" font-size="11.00">OrmTest</text>
</a>
</g>
<!-- \\OrmTest&#45;&gt;\\PHPUnit_Framework_TestCase -->
<g id="edge5" class="edge"><title>\\OrmTest&#45;&gt;\\PHPUnit_Framework_TestCase</title>
<path fill="none" stroke="black" d="M415.968,-105.974C411.217,-103.078 406.432,-100.034 402,-97 368.32,-73.9478 367.575,-55.9349 330,-40 322.351,-36.7561 314.339,-33.9634 306.142,-31.5613"/>
<polygon fill="none" stroke="black" points="307.013,-28.1713 296.445,-28.9174 305.172,-34.9247 307.013,-28.1713"/>
</g>
<!-- \\BaseTest -->
<g id="node4" class="node"><title>\\BaseTest</title>
<a xlink:href="core.test.BaseTest.html" xlink:title="BaseTest" target="_parent">
<polygon fill="none" stroke="black" points="483,-88 413,-88 413,-52 483,-52 483,-88"/>
<text text-anchor="middle" x="448" y="-67.1" font-family="Courier,monospace" font-size="11.00">BaseTest</text>
</a>
</g>
<!-- \\BaseTest&#45;&gt;\\PHPUnit_Framework_TestCase -->
<g id="edge7" class="edge"><title>\\BaseTest&#45;&gt;\\PHPUnit_Framework_TestCase</title>
<path fill="none" stroke="black" d="M412.354,-59.7843C389.069,-53.3978 357.915,-45.3905 330,-40 316.282,-37.3511 301.862,-34.918 287.492,-32.7138"/>
<polygon fill="none" stroke="black" points="287.97,-29.2465 277.562,-31.2246 286.932,-36.1691 287.97,-29.2465"/>
</g>
<!-- \\Orm -->
<g id="node5" class="node"><title>\\Orm</title>
<a xlink:href="core.orm.html" xlink:title="Orm" target="_parent">
<polygon fill="none" stroke="black" points="192,-547 138,-547 138,-511 192,-511 192,-547"/>
<text text-anchor="middle" x="165" y="-526.1" font-family="Courier,monospace" font-size="11.00">Orm</text>
</a>
</g>
<!-- \\Utils -->
<g id="node6" class="node"><title>\\Utils</title>
<a xlink:href="core.utils.html" xlink:title="Utils" target="_parent">
<polygon fill="none" stroke="black" points="475,-412 421,-412 421,-376 475,-376 475,-412"/>
<text text-anchor="middle" x="448" y="-391.1" font-family="Courier,monospace" font-size="11.00">Utils</text>
</a>
</g>
<!-- \\Config -->
<g id="node7" class="node"><title>\\Config</title>
<a xlink:href="core.config.html" xlink:title="Config" target="_parent">
<polygon fill="none" stroke="black" points="476,-358 420,-358 420,-322 476,-322 476,-358"/>
<text text-anchor="middle" x="448" y="-337.1" font-family="Courier,monospace" font-size="11.00">Config</text>
</a>
</g>
<!-- \\Db -->
<g id="node8" class="node"><title>\\Db</title>
<a xlink:href="core.database.html" xlink:title="Db" target="_parent">
<polygon fill="none" stroke="black" points="475,-304 421,-304 421,-268 475,-268 475,-304"/>
<text text-anchor="middle" x="448" y="-283.1" font-family="Courier,monospace" font-size="11.00">Db</text>
</a>
</g>
<!-- \\Base -->
<g id="node9" class="node"><title>\\Base</title>
<a xlink:href="core.base.html" xlink:title="Base" target="_parent">
<polygon fill="none" stroke="black" points="192,-358 138,-358 138,-322 192,-322 192,-358"/>
<text text-anchor="middle" x="165" y="-337.1" font-family="Courier,monospace" font-size="11.00">Base</text>
</a>
</g>
<!-- \\Model_Users -->
<g id="node10" class="node"><title>\\Model_Users</title>
<a xlink:href="app.classes.models.users.html" xlink:title="Model_Users" target="_parent">
<polygon fill="none" stroke="black" points="493,-574 403,-574 403,-538 493,-538 493,-574"/>
<text text-anchor="middle" x="448" y="-553.1" font-family="Courier,monospace" font-size="11.00">Model_Users</text>
</a>
</g>
<!-- \\Model_Users&#45;&gt;\\Orm -->
<g id="edge9" class="edge"><title>\\Model_Users&#45;&gt;\\Orm</title>
<path fill="none" stroke="black" d="M402.217,-551.632C346.602,-546.326 253.852,-537.477 202.35,-532.563"/>
<polygon fill="none" stroke="black" points="202.605,-529.072 192.318,-531.606 201.94,-536.04 202.605,-529.072"/>
</g>
<!-- \\Model_Home -->
<g id="node11" class="node"><title>\\Model_Home</title>
<a xlink:href="app.classes.models.home.html" xlink:title="Model_Home" target="_parent">
<polygon fill="none" stroke="black" points="490,-520 406,-520 406,-484 490,-484 490,-520"/>
<text text-anchor="middle" x="448" y="-499.1" font-family="Courier,monospace" font-size="11.00">Model_Home</text>
</a>
</g>
<!-- \\Model_Home&#45;&gt;\\Orm -->
<g id="edge11" class="edge"><title>\\Model_Home&#45;&gt;\\Orm</title>
<path fill="none" stroke="black" d="M405.938,-506.013C350.91,-511.263 255.314,-520.383 202.594,-525.413"/>
<polygon fill="none" stroke="black" points="201.957,-521.958 192.335,-526.392 202.622,-528.926 201.957,-521.958"/>
</g>
<!-- \\Users -->
<g id="node12" class="node"><title>\\Users</title>
<a xlink:href="app.classes.controllers.users.html" xlink:title="Users" target="_parent">
<polygon fill="none" stroke="black" points="475,-466 421,-466 421,-430 475,-430 475,-466"/>
<text text-anchor="middle" x="448" y="-445.1" font-family="Courier,monospace" font-size="11.00">Users</text>
</a>
</g>
<!-- \\Users&#45;&gt;\\Base -->
<g id="edge13" class="edge"><title>\\Users&#45;&gt;\\Base</title>
<path fill="none" stroke="black" d="M420.865,-437.645C369.73,-418.13 259.08,-375.903 201.493,-353.927"/>
<polygon fill="none" stroke="black" points="202.644,-350.62 192.053,-350.324 200.148,-357.16 202.644,-350.62"/>
</g>
<!-- \\Home -->
<g id="node13" class="node"><title>\\Home</title>
<a xlink:href="app.classes.controllers.home.html" xlink:title="Home" target="_parent">
<polygon fill="none" stroke="black" points="475,-250 421,-250 421,-214 475,-214 475,-250"/>
<text text-anchor="middle" x="448" y="-229.1" font-family="Courier,monospace" font-size="11.00">Home</text>
</a>
</g>
<!-- \\Home&#45;&gt;\\Base -->
<g id="edge15" class="edge"><title>\\Home&#45;&gt;\\Base</title>
<path fill="none" stroke="black" d="M420.804,-247.018C414.511,-250.751 407.926,-254.87 402,-259 368.057,-282.654 367.951,-301.527 330,-318 288.798,-335.884 236.807,-340.162 202.315,-340.762"/>
<polygon fill="none" stroke="black" points="202.175,-337.263 192.203,-340.842 202.23,-344.263 202.175,-337.263"/>
</g>
</g>
</svg>
